<mxfile host="app.diagrams.net" modified="2021-01-07T16:33:30.632Z" agent="5.0 (Macintosh; Intel Mac OS X 10_15_7) AppleWebKit/537.36 (KHTML, like Gecko) Chrome/87.0.4280.88 Safari/537.36" etag="cja-mk-OcRz6RILIGzSW" version="14.1.2" type="github">
  <diagram id="bi9RlDIyEu_Xhf9pTB_6" name="Page-1">
    <mxGraphModel dx="786" dy="1163" grid="1" gridSize="10" guides="1" tooltips="1" connect="1" arrows="1" fold="1" page="1" pageScale="1" pageWidth="827" pageHeight="1169" math="0" shadow="0">
      <root>
        <mxCell id="0" />
        <mxCell id="1" parent="0" />
        <mxCell id="3eiWOd3OzPt7d0_V_95u-1" value="" style="rounded=0;whiteSpace=wrap;html=1;" parent="1" vertex="1">
          <mxGeometry x="230" y="170" width="310" height="60" as="geometry" />
        </mxCell>
        <mxCell id="3eiWOd3OzPt7d0_V_95u-2" value="" style="endArrow=none;html=1;entryX=0.25;entryY=0;entryDx=0;entryDy=0;exitX=0.25;exitY=1;exitDx=0;exitDy=0;" parent="1" source="3eiWOd3OzPt7d0_V_95u-1" target="3eiWOd3OzPt7d0_V_95u-1" edge="1">
          <mxGeometry width="50" height="50" relative="1" as="geometry">
            <mxPoint x="385" y="110" as="sourcePoint" />
            <mxPoint x="360" y="260" as="targetPoint" />
          </mxGeometry>
        </mxCell>
        <mxCell id="3eiWOd3OzPt7d0_V_95u-3" value="" style="endArrow=none;html=1;entryX=0.5;entryY=0;entryDx=0;entryDy=0;exitX=0.5;exitY=1;exitDx=0;exitDy=0;" parent="1" source="3eiWOd3OzPt7d0_V_95u-1" target="3eiWOd3OzPt7d0_V_95u-1" edge="1">
          <mxGeometry width="50" height="50" relative="1" as="geometry">
            <mxPoint x="630" y="160" as="sourcePoint" />
            <mxPoint x="440" y="300" as="targetPoint" />
          </mxGeometry>
        </mxCell>
        <mxCell id="3eiWOd3OzPt7d0_V_95u-4" value="" style="endArrow=none;html=1;entryX=0.75;entryY=0;entryDx=0;entryDy=0;exitX=0.75;exitY=1;exitDx=0;exitDy=0;" parent="1" source="3eiWOd3OzPt7d0_V_95u-1" target="3eiWOd3OzPt7d0_V_95u-1" edge="1">
          <mxGeometry width="50" height="50" relative="1" as="geometry">
            <mxPoint x="390" y="350" as="sourcePoint" />
            <mxPoint x="440" y="300" as="targetPoint" />
          </mxGeometry>
        </mxCell>
        <mxCell id="3eiWOd3OzPt7d0_V_95u-5" value="&lt;font style=&quot;font-size: 18px&quot;&gt;0&lt;/font&gt;" style="text;html=1;fillColor=none;align=center;verticalAlign=middle;whiteSpace=wrap;rounded=0;strokeColor=#000000;" parent="1" vertex="1">
          <mxGeometry x="250" y="240" width="40" height="20" as="geometry" />
        </mxCell>
        <mxCell id="3eiWOd3OzPt7d0_V_95u-6" value="&lt;font style=&quot;font-size: 18px&quot;&gt;1&lt;/font&gt;" style="text;html=1;fillColor=none;align=center;verticalAlign=middle;whiteSpace=wrap;rounded=0;strokeColor=#000000;" parent="1" vertex="1">
          <mxGeometry x="330" y="240" width="40" height="20" as="geometry" />
        </mxCell>
        <mxCell id="3eiWOd3OzPt7d0_V_95u-7" value="&lt;font style=&quot;font-size: 18px&quot;&gt;2&lt;/font&gt;" style="text;html=1;fillColor=none;align=center;verticalAlign=middle;whiteSpace=wrap;rounded=0;strokeColor=#000000;" parent="1" vertex="1">
          <mxGeometry x="400" y="240" width="40" height="20" as="geometry" />
        </mxCell>
        <mxCell id="3eiWOd3OzPt7d0_V_95u-8" value="&lt;font style=&quot;font-size: 18px&quot;&gt;3&lt;/font&gt;" style="text;html=1;fillColor=none;align=center;verticalAlign=middle;whiteSpace=wrap;rounded=0;strokeColor=#000000;" parent="1" vertex="1">
          <mxGeometry x="480" y="240" width="40" height="20" as="geometry" />
        </mxCell>
        <mxCell id="3eiWOd3OzPt7d0_V_95u-12" value="value" style="text;html=1;strokeColor=none;fillColor=none;align=center;verticalAlign=middle;whiteSpace=wrap;rounded=0;" parent="1" vertex="1">
          <mxGeometry x="480" y="190" width="40" height="20" as="geometry" />
        </mxCell>
        <mxCell id="3eiWOd3OzPt7d0_V_95u-13" value="value" style="text;html=1;strokeColor=none;fillColor=none;align=center;verticalAlign=middle;whiteSpace=wrap;rounded=0;" parent="1" vertex="1">
          <mxGeometry x="400" y="190" width="40" height="20" as="geometry" />
        </mxCell>
        <mxCell id="3eiWOd3OzPt7d0_V_95u-14" value="value" style="text;html=1;strokeColor=none;fillColor=none;align=center;verticalAlign=middle;whiteSpace=wrap;rounded=0;" parent="1" vertex="1">
          <mxGeometry x="330" y="190" width="40" height="20" as="geometry" />
        </mxCell>
        <mxCell id="3eiWOd3OzPt7d0_V_95u-15" value="value" style="text;html=1;strokeColor=none;fillColor=none;align=center;verticalAlign=middle;whiteSpace=wrap;rounded=0;" parent="1" vertex="1">
          <mxGeometry x="250" y="190" width="40" height="20" as="geometry" />
        </mxCell>
        <mxCell id="PNfvB2rRHvDQzaKIgHbL-2" value="&lt;font style=&quot;font-size: 20px&quot;&gt;Array&lt;/font&gt;" style="text;html=1;fillColor=none;align=center;verticalAlign=middle;whiteSpace=wrap;rounded=0;strokeColor=#000000;strokeWidth=2;" vertex="1" parent="1">
          <mxGeometry x="380" y="40" width="140" height="30" as="geometry" />
        </mxCell>
        <mxCell id="PNfvB2rRHvDQzaKIgHbL-3" value="&lt;font style=&quot;font-size: 16px&quot;&gt;200&lt;/font&gt;" style="text;html=1;fillColor=none;align=center;verticalAlign=middle;whiteSpace=wrap;rounded=0;dashed=1;strokeColor=#66B2FF;strokeWidth=2;" vertex="1" parent="1">
          <mxGeometry x="240" y="130" width="50" height="20" as="geometry" />
        </mxCell>
        <mxCell id="PNfvB2rRHvDQzaKIgHbL-4" value="&lt;font style=&quot;font-size: 16px&quot;&gt;201&lt;/font&gt;" style="text;html=1;fillColor=none;align=center;verticalAlign=middle;whiteSpace=wrap;rounded=0;dashed=1;strokeColor=#66B2FF;strokeWidth=2;" vertex="1" parent="1">
          <mxGeometry x="325" y="130" width="50" height="20" as="geometry" />
        </mxCell>
        <mxCell id="PNfvB2rRHvDQzaKIgHbL-5" value="&lt;font style=&quot;font-size: 16px&quot;&gt;202&lt;/font&gt;" style="text;html=1;fillColor=none;align=center;verticalAlign=middle;whiteSpace=wrap;rounded=0;dashed=1;strokeColor=#66B2FF;strokeWidth=2;" vertex="1" parent="1">
          <mxGeometry x="395" y="130" width="50" height="20" as="geometry" />
        </mxCell>
        <mxCell id="PNfvB2rRHvDQzaKIgHbL-6" value="&lt;font style=&quot;font-size: 16px&quot;&gt;203&lt;/font&gt;" style="text;html=1;fillColor=none;align=center;verticalAlign=middle;whiteSpace=wrap;rounded=0;dashed=1;strokeColor=#66B2FF;strokeWidth=2;" vertex="1" parent="1">
          <mxGeometry x="475" y="130" width="50" height="20" as="geometry" />
        </mxCell>
        <mxCell id="PNfvB2rRHvDQzaKIgHbL-9" style="edgeStyle=orthogonalEdgeStyle;rounded=0;orthogonalLoop=1;jettySize=auto;html=1;exitX=0;exitY=0.5;exitDx=0;exitDy=0;entryX=1;entryY=0.5;entryDx=0;entryDy=0;" edge="1" parent="1" source="PNfvB2rRHvDQzaKIgHbL-7" target="PNfvB2rRHvDQzaKIgHbL-8">
          <mxGeometry relative="1" as="geometry" />
        </mxCell>
        <mxCell id="PNfvB2rRHvDQzaKIgHbL-7" value="&lt;font style=&quot;font-size: 16px&quot;&gt;memory address&lt;/font&gt;" style="text;html=1;fillColor=none;align=center;verticalAlign=middle;whiteSpace=wrap;rounded=0;dashed=1;strokeColor=#66B2FF;strokeWidth=2;" vertex="1" parent="1">
          <mxGeometry x="590" y="100" width="80" height="60" as="geometry" />
        </mxCell>
        <mxCell id="PNfvB2rRHvDQzaKIgHbL-8" value="" style="rounded=1;whiteSpace=wrap;html=1;dashed=1;strokeColor=#66B2FF;strokeWidth=2;fillColor=none;" vertex="1" parent="1">
          <mxGeometry x="230" y="100" width="310" height="60" as="geometry" />
        </mxCell>
        <mxCell id="PNfvB2rRHvDQzaKIgHbL-10" value="&lt;font style=&quot;font-size: 16px&quot;&gt;Element&lt;/font&gt;" style="text;html=1;fillColor=none;align=center;verticalAlign=middle;whiteSpace=wrap;rounded=0;strokeColor=#000000;strokeWidth=2;" vertex="1" parent="1">
          <mxGeometry x="590" y="180" width="80" height="40" as="geometry" />
        </mxCell>
        <mxCell id="PNfvB2rRHvDQzaKIgHbL-14" value="" style="endArrow=classic;html=1;entryX=0.763;entryY=0.536;entryDx=0;entryDy=0;entryPerimeter=0;exitX=0;exitY=0.5;exitDx=0;exitDy=0;" edge="1" parent="1" source="PNfvB2rRHvDQzaKIgHbL-10">
          <mxGeometry width="50" height="50" relative="1" as="geometry">
            <mxPoint x="380" y="600" as="sourcePoint" />
            <mxPoint x="540.1700000000001" y="200.07999999999993" as="targetPoint" />
          </mxGeometry>
        </mxCell>
        <mxCell id="PNfvB2rRHvDQzaKIgHbL-17" style="edgeStyle=orthogonalEdgeStyle;rounded=0;orthogonalLoop=1;jettySize=auto;html=1;exitX=0;exitY=0.5;exitDx=0;exitDy=0;entryX=1;entryY=0.5;entryDx=0;entryDy=0;" edge="1" parent="1" source="PNfvB2rRHvDQzaKIgHbL-15" target="3eiWOd3OzPt7d0_V_95u-8">
          <mxGeometry relative="1" as="geometry" />
        </mxCell>
        <mxCell id="PNfvB2rRHvDQzaKIgHbL-15" value="&lt;font style=&quot;font-size: 16px&quot;&gt;Index&lt;/font&gt;" style="text;html=1;fillColor=none;align=center;verticalAlign=middle;whiteSpace=wrap;rounded=0;strokeColor=#000000;strokeWidth=2;" vertex="1" parent="1">
          <mxGeometry x="590" y="232.5" width="80" height="35" as="geometry" />
        </mxCell>
        <mxCell id="PNfvB2rRHvDQzaKIgHbL-18" value="" style="rounded=0;whiteSpace=wrap;html=1;strokeColor=#000000;strokeWidth=1;fillColor=none;dashed=1;" vertex="1" parent="1">
          <mxGeometry x="180" y="10" width="540" height="320" as="geometry" />
        </mxCell>
      </root>
    </mxGraphModel>
  </diagram>
</mxfile>
